Paranormal Activity DVDSCR XVID-IMAGiNE
ORIGINAL PAGE :
Format: AVI
Format/Info: Audio Video Interleave
File size: 1.34 GiB
Duration: 1h 37mn
Overall bit rate: 1 701 Kbps
Writing library: VirtualDub build 30091/release

Video
ID: 0
Format: MPEG-4 Visual
Format profile: AdvancedSimple[@]L5
Format settings, BVOP: No
Format settings, QPel: No
Format settings, GMC: No warppoints
Format settings, Matrix: Default (MPEG)
Codec ID: XVID
Codec ID/Hint: XviD
Duration: 1h 37mn
Bit rate: 1 497 Kbps
Width: 852 pixels
Height: 480 pixels
Display aspect ratio: 16:9
Frame rate: 29.970 fps
Resolution: 24 bits
Colorimetry: 4:2:0
Scan type: Progressive
Bits/(Pixel*Frame): 0.122
Stream size: 1.02 GiB (88%)
Writing library: XviD 1.1.2 (UTC 2006-11-01)

Audio
ID: 1
Format: MPEG Audio
Format version: Version 1
Format profile: Layer 3
Codec ID: 55
Codec ID/Hint: MP3
Duration: 1h 37mn
Bit rate mode: Constant
Bit rate: 192 Kbps
Channel(s): 2 channels
Sampling rate: 44.1 KHz
Resolution: 16 bits
Video delay: 21ms
Stream size: 133 MiB (11%)
Alignment: Split accross interleaves
Interleave, duration: 33 ms (1.00 video frame)
Interleave, preload duration: 500 ms



Director: Oren Peli


Writer: Oren Peli (screenplay)
 
http://www.imdb.com/title/tt1179904/

Genre:Horror | Thriller more


Tagline:Don't See It Alone more


Plot:
After moving into a suburban home, a couple becomes increasingly disturbed by a nightly demonic presence.




